<?xml version="1.0" standalone="no"?>
<!DOCTYPE svg PUBLIC "-//W3C//DTD SVG 20010904//EN"
 "http://www.w3.org/TR/2001/REC-SVG-20010904/DTD/svg10.dtd">
<svg version="1.0" xmlns="http://www.w3.org/2000/svg"
 width="314.000000pt" height="420.000000pt" viewBox="0 0 314.000000 420.000000"
 preserveAspectRatio="xMidYMid meet">

<g transform="translate(0.000000,420.000000) scale(0.100000,-0.100000)"
fill="#000000" stroke="none">
<path d="M37 4153 c-4 -3 -7 -917 -7 -2029 0 -1861 1 -2024 16 -2039 15 -15
137 -16 1519 -13 1255 2 1505 5 1518 17 16 12 17 129 17 1494 l0 1481 -72 70
c-40 39 -230 225 -423 413 -192 187 -406 402 -475 476 l-125 136 -981 0 c-539
1 -984 -2 -987 -6z m1763 -263 c19 -19 20 -33 20 -499 0 -433 2 -480 17 -492
13 -11 107 -15 496 -17 330 -2 485 -6 494 -14 11 -8 13 -238 13 -1259 0 -1121
-2 -1249 -16 -1263 -14 -14 -142 -16 -1259 -16 -1117 0 -1245 2 -1259 16 -14
14 -16 188 -16 1770 0 1741 0 1754 20 1774 20 20 33 20 745 20 712 0 725 0
745 -20z m584 -469 c259 -259 260 -260 232 -270 -35 -14 -475 -15 -510 -1
l-26 10 0 253 c0 140 3 257 7 260 3 4 13 7 22 7 8 0 132 -117 275 -259z"/>
<path d="M2086 2352 c-15 -17 -16 -87 -14 -876 l3 -858 24 -19 c21 -17 41 -19
242 -19 214 0 218 0 233 22 14 20 16 120 16 883 0 656 -3 864 -12 873 -9 9
-77 12 -243 12 -213 0 -233 -2 -249 -18z"/>
<path d="M550 1851 c-13 -26 -14 -1209 0 -1245 l10 -26 225 0 226 0 25 25 24
25 -2 606 c-3 586 -4 606 -22 620 -16 11 -67 14 -248 14 -214 0 -228 -1 -238
-19z"/>
<path d="M1328 1339 c-17 -9 -18 -37 -18 -362 0 -303 2 -356 16 -375 15 -22
19 -22 232 -22 181 0 221 3 240 16 l22 15 0 359 c0 345 -1 360 -19 370 -26 13
-450 13 -473 -1z"/>
</g>
</svg>
